<svg id="Layer_1" data-name="Layer 1" xmlns="http://www.w3.org/2000/svg" viewBox="0 0 14.82 11.85"><defs><style>.cls-1{fill:#119a8e;}.cls-2{fill:#17a68b;}.cls-3{fill:#21bc87;}.cls-4{fill:#1db389;}.cls-5{fill:#27c885;}.cls-6{fill:#1aad8a;}.cls-7{fill:#139e8d;}.cls-8{fill:#31df80;}.cls-9{fill:#2fda81;}.cls-10{fill:#2bd383;}.cls-11{fill:#2dd782;}.cls-12{fill:#2ed783;}.cls-13{fill:#32d985;}.cls-14{fill:#4db2aa;}.cls-15{fill:#ccf7e0;}.cls-16{fill:#35e77e;}</style></defs><title>favicon</title><path class="cls-1" d="M9.48,11.28v-.63c0-.11,0-.23,0-.34,0-.46,0-.92,0-1.38a.7.7,0,0,0-.19-.53l0-.11.3-.53c.06-.11.11-.23.16-.34s.16-.37.23-.56a7.41,7.41,0,0,0,.27-1c0-.21.08-.42.11-.63s0-.26.05-.39,0-.24,0-.36,0-.42,0-.64,0-.23,0-.34,0-.14,0-.21,0-.25-.06-.38-.07-.38-.11-.57-.1-.33-.14-.49l-.08-.26h.44a.42.42,0,0,1,.38.35.48.48,0,0,1,0,.17v0c0,.27,0,.55,0,.82l0,1.33c0,.36,0,.73,0,1.09s0,.54,0,.8a.86.86,0,0,0,.16.58.78.78,0,0,0,.52.34.66.66,0,0,0,.2,0H13l1.46,0h.38a.33.33,0,0,1,.33.38v.06c0,.61,0,1.21,0,1.81,0,.75,0,1.5,0,2.24v1.06a.36.36,0,0,1-.28.36H11.06a2,2,0,0,1-.35-.09,1.76,1.76,0,0,1-1.2-1.38,1.66,1.66,0,0,1,0-.32A0,0,0,0,0,9.48,11.28Z" transform="translate(-0.59 -1.47)"/><path class="cls-2" d="M10.06,1.64l.08.26c0,.16.1.33.14.49s.08.38.11.57,0,.26.06.38,0,.14,0,.21,0,.23,0,.34,0,.43,0,.64,0,.24,0,.36,0,.26-.05.39-.06.42-.11.63a7.41,7.41,0,0,1-.27,1c-.07.19-.15.37-.23.56s-.1.23-.16.34l-.3.53,0,.11a.58.58,0,0,0-.25-.15.61.61,0,0,0-.55.1s0,0,0,0l-.33.4-.32.41-.33.4-.32.4-.24.3-.24.3a.69.69,0,0,1-.11.13.06.06,0,0,0-.07,0l-.22.12a5.94,5.94,0,0,1-.57.27c-.18.07-.35.14-.54.2l-.42.13-.4.1a5.58,5.58,0,0,1-.59.1l-.26,0H3.37l-.32,0c-.25,0-.49,0-.74,0h-.2l-.32,0-.33-.05L.94,11.5l-.12,0a0,0,0,0,1,0,0v-.76l0,0H.9l.16,0a6.63,6.63,0,0,0,.75.15l.32,0,.27,0H3a1.31,1.31,0,0,0,.28,0l.26,0,.34,0,.44-.08a6.75,6.75,0,0,0,.84-.26,4.27,4.27,0,0,0,.63-.27c.17-.08.34-.18.51-.28a5,5,0,0,0,.51-.34l.4-.32L7.48,9a.86.86,0,0,1,.13-.14c.1-.1.19-.21.28-.32l.21-.26.31-.45a6.05,6.05,0,0,0,.32-.55l.09-.19c0-.09.08-.17.11-.25a5.35,5.35,0,0,0,.24-.67,6.3,6.3,0,0,0,.18-.75c0-.17.05-.34.07-.51a2.45,2.45,0,0,0,0-.27c0-.11,0-.22,0-.34s0-.22,0-.34,0-.16,0-.24a.62.62,0,0,0,0-.13l0-.24A1.81,1.81,0,0,0,9.34,3c0-.19-.08-.38-.13-.56A5.25,5.25,0,0,0,9,1.8a.38.38,0,0,1-.05-.15h1.12Z" transform="translate(-0.59 -1.47)"/><path class="cls-3" d="M6.73,2a.92.92,0,0,1,.55-.36,1.42,1.42,0,0,1,.29,0,.24.24,0,0,0,0,.09,4.54,4.54,0,0,1,.3.68,4.88,4.88,0,0,1,.22.81,3.41,3.41,0,0,1,.06.43s0,.09,0,.13,0,.16,0,.24,0,.35,0,.52,0,.14,0,.21a2.91,2.91,0,0,1,0,.31c0,.12,0,.25-.07.38a4.54,4.54,0,0,1-.21.69,2.17,2.17,0,0,1-.15.35c-.09.19-.18.37-.28.55s-.18.28-.29.42A1.74,1.74,0,0,1,7,7.69l-.2.24a5.16,5.16,0,0,1-.54.5L6,8.64A3.67,3.67,0,0,1,5.42,9c-.18.1-.36.18-.54.26a4.23,4.23,0,0,1-.68.24,4.61,4.61,0,0,1-.84.15H3.24L3,9.66a5.3,5.3,0,0,1-.69,0l-.26,0-.32,0c-.23-.05-.45-.11-.67-.18L1,9.36a1.2,1.2,0,0,1,.16-.27c.13-.17.27-.33.4-.49h0l.12,0L2,8.69l.26,0H2.4l.25,0H3l.28,0,.33-.05a4.21,4.21,0,0,0,.61-.16l.44-.17a4.63,4.63,0,0,0,.54-.29,4.59,4.59,0,0,0,.44-.33,1.56,1.56,0,0,0,.2-.16,4,4,0,0,0,.44-.48A3.15,3.15,0,0,0,6.5,6.8c.09-.13.16-.26.24-.39A2.67,2.67,0,0,0,7,6l.15-.43c0-.14.07-.29.1-.43s0-.25.06-.37,0-.22,0-.33,0-.32,0-.48h0c0-.11,0-.21,0-.32s0-.26-.08-.38A2.9,2.9,0,0,0,7,2.73a4.17,4.17,0,0,0-.29-.65S6.73,2.05,6.73,2Z" transform="translate(-0.59 -1.47)"/><path class="cls-4" d="M1,9.36l.09,0c.22.07.44.13.67.18l.32,0,.26,0a5.3,5.3,0,0,0,.69,0l.23,0h.12a4.61,4.61,0,0,0,.84-.15,4.23,4.23,0,0,0,.68-.24c.18-.08.36-.16.54-.26A3.67,3.67,0,0,0,6,8.64l.27-.21a5.16,5.16,0,0,0,.54-.5L7,7.69a1.74,1.74,0,0,0,.18-.22c.11-.14.2-.28.29-.42s.19-.36.28-.55a2.17,2.17,0,0,0,.15-.35,4.54,4.54,0,0,0,.21-.69c0-.13,0-.26.07-.38a2.91,2.91,0,0,0,0-.31c0-.07,0-.14,0-.21s0-.35,0-.52,0-.16,0-.24,0-.09,0-.13a3.41,3.41,0,0,0-.06-.43,4.88,4.88,0,0,0-.22-.81,4.54,4.54,0,0,0-.3-.68.24.24,0,0,1,0-.09h.7s0,0,0,0,0,0,0,.06a2.29,2.29,0,0,1,.1.23,3.62,3.62,0,0,1,.2.55c0,.17.09.33.12.49a3.88,3.88,0,0,1,.09.58c0,.1,0,.2,0,.3a1,1,0,0,1,0,.25c0,.11,0,.22,0,.33a2.11,2.11,0,0,0,0,.26.91.91,0,0,1,0,.17,2.54,2.54,0,0,1,0,.29c0,.15-.05.3-.08.44a6.29,6.29,0,0,1-.22.74c-.07.19-.15.37-.23.55l-.14.25a3.38,3.38,0,0,1-.24.41,5,5,0,0,1-.48.65l-.27.29L7,8.66l-.25.23-.26.21-.39.27a5.3,5.3,0,0,1-.57.33l-.4.18a4.83,4.83,0,0,1-.64.22,4,4,0,0,1-.57.14l-.38.06-.35,0h-.3a1.74,1.74,0,0,1-.32,0H2.33l-.34,0-.38-.06A6.38,6.38,0,0,1,.89,10H.81l0-.27A1,1,0,0,1,1,9.36Z" transform="translate(-0.59 -1.47)"/><path class="cls-5" d="M6.73,2s0,0,0,0A4.17,4.17,0,0,1,7,2.73a2.9,2.9,0,0,1,.14.48c0,.12.06.25.08.38s0,.21,0,.32h0c0,.16,0,.32,0,.48s0,.22,0,.33,0,.25-.06.37-.06.29-.1.43L7,6a2.67,2.67,0,0,1-.22.45c-.08.13-.15.26-.24.39a3.15,3.15,0,0,1-.22.29,4,4,0,0,1-.44.48,1.56,1.56,0,0,1-.2.16,4.59,4.59,0,0,1-.44.33,4.63,4.63,0,0,1-.54.29l-.44.17a4.21,4.21,0,0,1-.61.16l-.33.05L3,8.75H2.65l-.25,0H2.29L2,8.69l-.35-.07-.12,0,.21-.27.41-.49,0,0,.24,0,.25,0a1.71,1.71,0,0,0,.32,0h.18l.38-.07a3.38,3.38,0,0,0,.81-.28,4.25,4.25,0,0,0,.46-.27,4.11,4.11,0,0,0,.45-.38,1,1,0,0,0,.14-.15l.21-.24A2.93,2.93,0,0,0,6,5.87c0-.1.1-.2.14-.3A4.11,4.11,0,0,0,6.3,5a2.93,2.93,0,0,0,.07-.41,2.28,2.28,0,0,1,0-.26c0-.1,0-.2,0-.3s0-.26,0-.38a4.7,4.7,0,0,0-.12-.51c0-.09-.07-.18-.1-.27a3,3,0,0,1,.2-.29l.4-.52Z" transform="translate(-0.59 -1.47)"/><path class="cls-6" d="M.81,10H.89a6.38,6.38,0,0,0,.72.19l.38.06.34,0h.23a1.74,1.74,0,0,0,.32,0h.3l.35,0,.38-.06a4,4,0,0,0,.57-.14,4.83,4.83,0,0,0,.64-.22l.4-.18a5.3,5.3,0,0,0,.57-.33l.39-.27.26-.21L7,8.66l.16-.16.27-.29a5,5,0,0,0,.48-.65,3.38,3.38,0,0,0,.24-.41l.14-.25c.08-.18.16-.36.23-.55a6.29,6.29,0,0,0,.22-.74c0-.14,0-.29.08-.44a2.54,2.54,0,0,0,0-.29.91.91,0,0,0,0-.17,2.11,2.11,0,0,1,0-.26c0-.11,0-.22,0-.33a1,1,0,0,0,0-.25c0-.1,0-.2,0-.3A3.88,3.88,0,0,0,8.75,3c0-.16-.08-.32-.12-.49A3.62,3.62,0,0,0,8.43,2a2.29,2.29,0,0,0-.1-.23s0,0,0-.06h.63A.38.38,0,0,0,9,1.8a5.25,5.25,0,0,1,.22.67c0,.18.09.37.13.56a1.81,1.81,0,0,1,.05.31l0,.24a.62.62,0,0,1,0,.13c0,.08,0,.16,0,.24s0,.23,0,.34,0,.23,0,.34a2.45,2.45,0,0,1,0,.27c0,.17,0,.34-.07.51a6.3,6.3,0,0,1-.18.75,5.35,5.35,0,0,1-.24.67c0,.08-.07.16-.11.25l-.09.19a6.05,6.05,0,0,1-.32.55l-.31.45-.21.26c-.09.11-.18.22-.28.32A.86.86,0,0,0,7.48,9l-.32.29-.4.32a5,5,0,0,1-.51.34c-.17.1-.34.2-.51.28a4.27,4.27,0,0,1-.63.27,6.75,6.75,0,0,1-.84.26l-.44.08-.34,0-.26,0a1.31,1.31,0,0,1-.28,0H2.4l-.27,0-.32,0a6.63,6.63,0,0,1-.75-.15l-.16,0H.84l0,0V10Z" transform="translate(-0.59 -1.47)"/><path class="cls-7" d="M.82,11.47l.12,0,.52.11.33.05.32,0h.2c.25,0,.49,0,.74,0l.32,0h.14l.26,0a5.58,5.58,0,0,0,.59-.1l.4-.1.42-.13c.19-.06.36-.13.54-.2a5.94,5.94,0,0,0,.57-.27l.22-.12a.06.06,0,0,1,.07,0l-.15.2c-.11.13-.21.27-.31.4l-.36.44-.9,1.12a.63.63,0,0,1-.5.25H1.23a.39.39,0,0,1-.4-.4c0-.4,0-.8,0-1.21C.81,11.51.82,11.49.82,11.47Z" transform="translate(-0.59 -1.47)"/><path class="cls-8" d="M.83,5.28V3.21s0,0,0,0a2.63,2.63,0,0,1,.28-.4,2.37,2.37,0,0,1,.42-.35,2,2,0,0,1,.35-.2,2.05,2.05,0,0,1,.5-.14,1,1,0,0,1,.24,0,2.54,2.54,0,0,1,.39,0,1.25,1.25,0,0,1,.19,0,1.92,1.92,0,0,1,.32.09,1.77,1.77,0,0,1,.31.15,2.16,2.16,0,0,1,.35.24,1.83,1.83,0,0,1,.33.35,2.26,2.26,0,0,1,.3.55A2,2,0,0,1,5,4.07a2.79,2.79,0,0,1,0,.5,2,2,0,0,1-.09.35,1.6,1.6,0,0,1-.2.44,1.68,1.68,0,0,1-.3.4l-.17.16a2.45,2.45,0,0,1-.37.26,2.62,2.62,0,0,1-.49.19A1.59,1.59,0,0,1,3,6.43a2.08,2.08,0,0,1-.43,0l-.25,0a2,2,0,0,1-.62-.25,2.62,2.62,0,0,1-.34-.24l-.2-.22a1.55,1.55,0,0,1-.24-.33S.86,5.29.83,5.28Zm1.95.58A1.62,1.62,0,1,0,1.16,4.21,1.62,1.62,0,0,0,2.78,5.86Z" transform="translate(-0.59 -1.47)"/><path class="cls-9" d="M.83,5.28s0,0,.05.06a1.55,1.55,0,0,0,.24.33l.2.22a2.62,2.62,0,0,0,.34.24,2,2,0,0,0,.62.25l.25,0a2.08,2.08,0,0,0,.43,0,1.59,1.59,0,0,0,.38-.06,2.62,2.62,0,0,0,.49-.19,2.45,2.45,0,0,0,.37-.26l.17-.16a1.68,1.68,0,0,0,.3-.4,1.6,1.6,0,0,0,.2-.44A2,2,0,0,0,5,4.57a2.79,2.79,0,0,0,0-.5,2,2,0,0,0-.13-.59,2.26,2.26,0,0,0-.3-.55,1.83,1.83,0,0,0-.33-.35,2.16,2.16,0,0,0-.35-.24,1.77,1.77,0,0,0-.31-.15,1.92,1.92,0,0,0-.32-.09,1.25,1.25,0,0,0-.19,0,2.54,2.54,0,0,0-.39,0,1,1,0,0,0-.24,0,2.05,2.05,0,0,0-.5.14,2,2,0,0,0-.35.2,2.37,2.37,0,0,0-.42.35,2.63,2.63,0,0,0-.28.4s0,0,0,0V2.42s0,0,.05,0l.2-.18A2,2,0,0,1,1.43,2a2.1,2.1,0,0,1,.3-.15l.32-.12a.06.06,0,0,0,.06,0l.37,0h.1a4.54,4.54,0,0,1,.5.12L3.5,2a3.55,3.55,0,0,1,.55.28l.39.25a1.64,1.64,0,0,1,.25.21c.13.11.25.23.37.35s.16.2.24.3,0,0,0,.06a2.79,2.79,0,0,1,.1.39,2.89,2.89,0,0,1,0,.29,3.82,3.82,0,0,1,0,.58c0,.13,0,.26-.09.39a2.65,2.65,0,0,1-.25.54,2.08,2.08,0,0,1-.24.34,2.73,2.73,0,0,1-.23.25,2.09,2.09,0,0,1-.29.23,2,2,0,0,1-.4.24,2.32,2.32,0,0,1-.44.16l-.31.06L3,6.89l.17-.21,0-.06s0,0,0,0H1.53a.73.73,0,0,1-.3-.07l0,0s0,0,0,0h0s0-.06-.09-.07a.65.65,0,0,1-.22-.34.78.78,0,0,1,0-.14Z" transform="translate(-0.59 -1.47)"/><path class="cls-10" d="M6.11,2.87c0,.09.06.18.1.27a4.7,4.7,0,0,1,.12.51c0,.12,0,.25,0,.38s0,.2,0,.3a2.28,2.28,0,0,0,0,.26A2.93,2.93,0,0,1,6.3,5a4.11,4.11,0,0,1-.17.57c0,.1-.09.2-.14.3a2.93,2.93,0,0,1-.35.56l-.21.24a1,1,0,0,1-.14.15,4.11,4.11,0,0,1-.45.38,4.25,4.25,0,0,1-.46.27,3.38,3.38,0,0,1-.81.28l-.38.07H3a1.71,1.71,0,0,1-.32,0l-.25,0-.24,0,.18-.22c.09-.12.19-.23.29-.35H3l.25,0a3.9,3.9,0,0,0,.46-.12,3,3,0,0,0,.42-.16l.22-.13a3.11,3.11,0,0,0,.53-.41L5,6.24,5.22,6a2.6,2.6,0,0,0,.31-.57c0-.12.1-.25.14-.38a2.36,2.36,0,0,0,.08-.45,2.45,2.45,0,0,0,0-.27,1.13,1.13,0,0,0,0-.26c0-.06,0-.13,0-.2a2.7,2.7,0,0,0-.08-.39l.24-.31Z" transform="translate(-0.59 -1.47)"/><path class="cls-11" d="M5.66,3.45a2.7,2.7,0,0,1,.08.39c0,.07,0,.14,0,.2a1.13,1.13,0,0,1,0,.26,2.45,2.45,0,0,1,0,.27A2.36,2.36,0,0,1,5.67,5c0,.13-.09.26-.14.38A2.6,2.6,0,0,1,5.22,6L5,6.24l-.13.14a3.11,3.11,0,0,1-.53.41l-.22.13a3,3,0,0,1-.42.16,3.9,3.9,0,0,1-.46.12L3,7.22H2.68L3,6.89l.21,0,.31-.06a2.32,2.32,0,0,0,.44-.16,2,2,0,0,0,.4-.24,2.09,2.09,0,0,0,.29-.23,2.73,2.73,0,0,0,.23-.25,2.08,2.08,0,0,0,.24-.34,2.65,2.65,0,0,0,.25-.54c0-.13.06-.26.09-.39a3.82,3.82,0,0,0,0-.58,2.89,2.89,0,0,0,0-.29,2.79,2.79,0,0,0-.1-.39s0,0,0-.06l.22.3Z" transform="translate(-0.59 -1.47)"/><path class="cls-12" d="M2.11,1.64a.06.06,0,0,1-.06,0l-.32.12a2.1,2.1,0,0,0-.3.15,2,2,0,0,0-.35.25l-.2.18s0,0-.05,0a.71.71,0,0,1,.43-.73.69.69,0,0,1,.24-.05h.61Z" transform="translate(-0.59 -1.47)"/><path class="cls-13" d="M1.07,6.42c.05,0,.08,0,.09.07Z" transform="translate(-0.59 -1.47)"/><path class="cls-14" d="M9.48,11.28a0,0,0,0,1,0,0Z" transform="translate(-0.59 -1.47)"/><path class="cls-13" d="M1.16,6.49s0,0,0,0Z" transform="translate(-0.59 -1.47)"/><path class="cls-15" d="M3.16,6.6s0,0,0,0Z" transform="translate(-0.59 -1.47)"/><path class="cls-16" d="M2.78,5.86A1.62,1.62,0,1,1,4.4,4.28,1.63,1.63,0,0,1,2.78,5.86Z" transform="translate(-0.59 -1.47)"/><path class="cls-1" d="M9.52,11.4c0-.22,0-.44,0-.65v-.36c0-.47,0-.94,0-1.41a.74.74,0,0,0-.2-.55,1.17,1.17,0,0,1,.05-.11c.1-.18.21-.36.31-.55a3.73,3.73,0,0,0,.16-.35,5.89,5.89,0,0,0,.24-.58,7.73,7.73,0,0,0,.28-1c0-.22.08-.43.12-.65s0-.27,0-.41a2.17,2.17,0,0,0,0-.36c0-.22,0-.44,0-.66s0-.24,0-.36a1.49,1.49,0,0,0,0-.21c0-.13,0-.26-.06-.39s-.07-.39-.11-.59-.1-.34-.15-.51,0-.17-.08-.26c.15,0,.3,0,.45,0a.42.42,0,0,1,.39.35A.59.59,0,0,1,11,2v0c0,.28,0,.57,0,.85,0,.46,0,.91,0,1.37s0,.75,0,1.12,0,.55,0,.83a1,1,0,0,0,.16.59.9.9,0,0,0,.54.36h1.58l1.5,0h.39a.36.36,0,0,1,.35.4s0,0,0,.06V9.54c0,.77,0,1.54,0,2.31,0,.33,0,.66,0,1v.11a.35.35,0,0,1-.28.37H11.16a2.22,2.22,0,0,1-.37-.09,1.82,1.82,0,0,1-1.24-1.42,1.84,1.84,0,0,1,0-.33A0,0,0,0,0,9.52,11.4Z" transform="translate(-0.59 -1.47)"/><path class="cls-2" d="M10.12,1.47c0,.09.05.18.08.26s.11.34.15.51.08.39.11.59,0,.26.06.39a1.49,1.49,0,0,1,0,.21c0,.12,0,.24,0,.36s0,.44,0,.66a2.17,2.17,0,0,1,0,.36c0,.14,0,.27,0,.41s-.07.43-.12.65a7.73,7.73,0,0,1-.28,1,5.89,5.89,0,0,1-.24.58,3.73,3.73,0,0,1-.16.35c-.1.19-.21.37-.31.55a1.17,1.17,0,0,0-.05.11.63.63,0,0,0-.26-.16.66.66,0,0,0-.57.11l0,0-.33.41-.34.42-.33.41-.33.42-.25.31-.25.31-.11.13a.06.06,0,0,0-.07,0L6.24,11a6.19,6.19,0,0,1-.58.28c-.19.07-.37.15-.56.21l-.43.13a3.2,3.2,0,0,1-.42.1,4.21,4.21,0,0,1-.6.11l-.28,0H3.23l-.33,0c-.25,0-.51,0-.76,0H1.93l-.33,0-.33,0-.54-.12-.13,0v0c0-.25,0-.51,0-.76v0l0,0H.68l.17,0a7.14,7.14,0,0,0,.78.15L2,11l.28,0h.86l.27,0,.35-.05.44-.08A8,8,0,0,0,5,10.59c.22-.08.44-.18.65-.28s.35-.19.52-.29a4.86,4.86,0,0,0,.53-.35c.14-.11.28-.22.41-.34L7.46,9l.14-.14a3.11,3.11,0,0,0,.29-.33A2.65,2.65,0,0,0,8.1,8.3c.11-.15.22-.31.32-.47a4.56,4.56,0,0,0,.33-.56,1.86,1.86,0,0,0,.1-.2c0-.09.08-.17.11-.26a5.13,5.13,0,0,0,.25-.69,6.63,6.63,0,0,0,.18-.77c0-.17,0-.35.08-.53s0-.18,0-.28,0-.22,0-.34,0-.23,0-.35,0-.17,0-.25a.57.57,0,0,1,0-.13c0-.08,0-.17,0-.25a1.92,1.92,0,0,0,0-.32c0-.19-.09-.39-.13-.58A5.44,5.44,0,0,0,9,1.64a.43.43,0,0,1,0-.16h1.15Z" transform="translate(-0.59 -1.47)"/><path class="cls-3" d="M6.69,1.88a1,1,0,0,1,.57-.37,1,1,0,0,1,.3,0s0,.06,0,.09a4.82,4.82,0,0,1,.31.7,5,5,0,0,1,.23.84c0,.15.05.29.06.44s0,.09,0,.13a2.29,2.29,0,0,1,0,.25,4.64,4.64,0,0,1,0,.53c0,.07,0,.15,0,.23s0,.2,0,.31-.05.26-.08.39a4.44,4.44,0,0,1-.21.71c-.05.12-.1.25-.16.37A5.93,5.93,0,0,1,7.41,7c-.09.15-.19.29-.29.43a2.11,2.11,0,0,1-.19.23,2.41,2.41,0,0,1-.21.24,4.51,4.51,0,0,1-.55.52l-.28.22A3.94,3.94,0,0,1,5.34,9c-.18.1-.37.18-.55.27a4.45,4.45,0,0,1-.7.24,4.3,4.3,0,0,1-.87.16H3.1l-.24,0a5.56,5.56,0,0,1-.71,0l-.27,0-.33-.06a5.23,5.23,0,0,1-.68-.18l-.1,0a1,1,0,0,1,.17-.28c.13-.17.27-.34.41-.5l0,0,.12,0,.36.07.27,0h.12l.25,0h.36l.29,0,.34,0a3.68,3.68,0,0,0,.63-.17l.45-.18a3.71,3.71,0,0,0,.56-.29,3.54,3.54,0,0,0,.45-.34l.2-.17a4.29,4.29,0,0,0,.46-.49,3.4,3.4,0,0,0,.23-.3c.09-.13.16-.26.24-.4a2.92,2.92,0,0,0,.23-.47c.05-.14.11-.29.15-.44s.08-.29.11-.44,0-.25.06-.38,0-.23,0-.34,0-.33,0-.5h0c0-.11,0-.22,0-.33s-.05-.27-.08-.4S7.06,2.75,7,2.6a5.19,5.19,0,0,0-.3-.68S6.7,1.89,6.69,1.88Z" transform="translate(-0.59 -1.47)"/><path class="cls-4" d="M.77,9.42l.1,0a5.23,5.23,0,0,0,.68.18l.33.06.27,0a5.56,5.56,0,0,0,.71,0l.24,0h.12a4.3,4.3,0,0,0,.87-.16,4.45,4.45,0,0,0,.7-.24c.18-.09.37-.17.55-.27a3.94,3.94,0,0,0,.55-.35l.28-.22a4.51,4.51,0,0,0,.55-.52,2.41,2.41,0,0,0,.21-.24,2.11,2.11,0,0,0,.19-.23c.1-.14.2-.28.29-.43a5.93,5.93,0,0,0,.29-.56c.06-.12.11-.25.16-.37a4.44,4.44,0,0,0,.21-.71c0-.13,0-.26.08-.39s0-.21,0-.31,0-.16,0-.23a4.64,4.64,0,0,0,0-.53,2.29,2.29,0,0,0,0-.25s0-.09,0-.13,0-.29-.06-.44a5,5,0,0,0-.23-.84,4.82,4.82,0,0,0-.31-.7s0-.05,0-.09h.76s0,0,0,.06l.11.24c.07.18.14.37.2.57s.09.33.13.5.07.4.09.59l0,.31a2.26,2.26,0,0,1,0,.26,1.93,1.93,0,0,1,0,.34,2.44,2.44,0,0,0,0,.27c0,.06,0,.12,0,.18a2.5,2.5,0,0,1-.05.29c0,.15-.05.31-.08.46a5.11,5.11,0,0,1-.23.76,5.55,5.55,0,0,1-.24.56c0,.09-.09.18-.13.26s-.16.29-.25.43a5.21,5.21,0,0,1-.5.66l-.27.31A1.29,1.29,0,0,0,7,8.7l-.26.23-.27.22L6,9.43a5.51,5.51,0,0,1-.58.34L5,10a4.08,4.08,0,0,1-.67.23,3.9,3.9,0,0,1-.59.14l-.38.07-.36,0H2.73a1.82,1.82,0,0,1-.33,0H2.16l-.35,0-.39-.06a6.21,6.21,0,0,1-.74-.2H.59a2.7,2.7,0,0,1,0-.28A1,1,0,0,1,.77,9.42Z" transform="translate(-0.59 -1.47)"/><path class="cls-5" d="M6.69,1.88s0,0,0,0A5.19,5.19,0,0,1,7,2.6c0,.15.1.32.14.48s0,.26.08.4,0,.22,0,.33h0c0,.17,0,.33,0,.5s0,.23,0,.34,0,.26-.06.38-.07.3-.11.44-.1.3-.15.44a2.92,2.92,0,0,1-.23.47c-.08.14-.15.27-.24.4a3.4,3.4,0,0,1-.23.3,4.29,4.29,0,0,1-.46.49l-.2.17a3.54,3.54,0,0,1-.45.34,3.71,3.71,0,0,1-.56.29l-.45.18a3.68,3.68,0,0,1-.63.17l-.34,0-.29,0H2.49l-.25,0H2.12l-.27,0-.36-.07-.12,0,.21-.27L2,7.84l0,0,.24,0,.27,0h.32l.18,0,.39-.06a3.8,3.8,0,0,0,.84-.3,2.87,2.87,0,0,0,.48-.28c.16-.12.31-.25.46-.38l.14-.16c.07-.08.15-.16.22-.25a3,3,0,0,0,.36-.57,3.09,3.09,0,0,0,.14-.32,3,3,0,0,0,.18-.58,3,3,0,0,0,.07-.43c0-.09,0-.17,0-.26s0-.21,0-.31a2.6,2.6,0,0,0,0-.39A3.16,3.16,0,0,0,6.15,3c0-.09-.07-.18-.1-.28l.21-.29c.14-.18.27-.36.41-.53C6.67,1.89,6.68,1.89,6.69,1.88Z" transform="translate(-0.59 -1.47)"/><path class="cls-6" d="M.59,10.11H.68a6.21,6.21,0,0,0,.74.2l.39.06.35,0H2.4a1.82,1.82,0,0,0,.33,0H3l.36,0,.38-.07a3.9,3.9,0,0,0,.59-.14A4.08,4.08,0,0,0,5,10l.41-.18A5.51,5.51,0,0,0,6,9.43l.4-.28.27-.22L7,8.7a1.29,1.29,0,0,1,.17-.16l.27-.31a5.21,5.21,0,0,0,.5-.66c.09-.14.17-.28.25-.43s.09-.17.13-.26a5.55,5.55,0,0,0,.24-.56,5.11,5.11,0,0,0,.23-.76c0-.15.06-.31.08-.46a2.5,2.5,0,0,0,.05-.29c0-.06,0-.12,0-.18a2.44,2.44,0,0,1,0-.27,1.93,1.93,0,0,0,0-.34,2.26,2.26,0,0,0,0-.26l0-.31c0-.19,0-.39-.09-.59s-.09-.34-.13-.5-.13-.39-.2-.57l-.11-.24s0,0,0-.06H9a.43.43,0,0,0,0,.16,5.44,5.44,0,0,1,.23.68c0,.19.09.39.13.58a1.92,1.92,0,0,1,0,.32c0,.08,0,.17,0,.25a.57.57,0,0,0,0,.13c0,.08,0,.17,0,.25s0,.23,0,.35,0,.23,0,.34,0,.19,0,.28-.05.36-.08.53a6.63,6.63,0,0,1-.18.77A5.13,5.13,0,0,1,9,6.81c0,.09-.07.17-.11.26a1.86,1.86,0,0,1-.1.2,4.56,4.56,0,0,1-.33.56c-.1.16-.21.32-.32.47a2.65,2.65,0,0,1-.21.26,3.11,3.11,0,0,1-.29.33L7.46,9l-.33.3c-.13.12-.27.23-.41.34a4.86,4.86,0,0,1-.53.35c-.17.1-.34.2-.52.29s-.43.2-.65.28a8,8,0,0,1-.87.26l-.44.08L3.36,11l-.27,0H2.23L2,11l-.32-.05a7.14,7.14,0,0,1-.78-.15l-.17,0H.63l0,0v-.67Z" transform="translate(-0.59 -1.47)"/><path class="cls-7" d="M.6,11.6l.13,0,.54.12.33,0,.33,0h.21c.25,0,.51,0,.76,0l.33,0h.14l.28,0a4.21,4.21,0,0,0,.6-.11,3.2,3.2,0,0,0,.42-.1l.43-.13c.19-.06.37-.14.56-.21A6.19,6.19,0,0,0,6.24,11l.23-.12a.06.06,0,0,1,.07,0L6.38,11l-.32.4-.36.46-.93,1.16a.65.65,0,0,1-.52.25H1a.41.41,0,0,1-.42-.42c0-.41,0-.83,0-1.24Z" transform="translate(-0.59 -1.47)"/><path class="cls-8" d="M.61,5.22V3.09l0,0a2.06,2.06,0,0,1,.3-.41,2.42,2.42,0,0,1,.42-.37,2.16,2.16,0,0,1,.36-.2,1.93,1.93,0,0,1,.52-.15,1.07,1.07,0,0,1,.25,0,2.67,2.67,0,0,1,.4,0,1.25,1.25,0,0,1,.19,0A2.62,2.62,0,0,1,3.41,2l.33.15a3.27,3.27,0,0,1,.36.25,2.41,2.41,0,0,1,.34.37,2.77,2.77,0,0,1,.31.56A2.15,2.15,0,0,1,4.88,4a2.18,2.18,0,0,1,0,.51,2.21,2.21,0,0,1-.08.37,2.28,2.28,0,0,1-.2.45,2.15,2.15,0,0,1-.32.41l-.18.17a2.45,2.45,0,0,1-.37.26,2.25,2.25,0,0,1-.51.2,1.67,1.67,0,0,1-.39.06,1.63,1.63,0,0,1-.44,0l-.26,0a1.88,1.88,0,0,1-.64-.26,2,2,0,0,1-.35-.25L.91,5.62a1.61,1.61,0,0,1-.24-.34S.65,5.23.61,5.22Zm2,.6A1.69,1.69,0,0,0,4.3,4.19,1.67,1.67,0,1,0,2.62,5.82Z" transform="translate(-0.59 -1.47)"/><path class="cls-9" d="M.61,5.22s0,0,.06.06a1.61,1.61,0,0,0,.24.34l.21.22a2,2,0,0,0,.35.25,1.88,1.88,0,0,0,.64.26l.26,0a1.63,1.63,0,0,0,.44,0,1.67,1.67,0,0,0,.39-.06,2.25,2.25,0,0,0,.51-.2,2.45,2.45,0,0,0,.37-.26l.18-.17a2.15,2.15,0,0,0,.32-.41,2.28,2.28,0,0,0,.2-.45,2.21,2.21,0,0,0,.08-.37,2.18,2.18,0,0,0,0-.51,2.15,2.15,0,0,0-.13-.61,2.77,2.77,0,0,0-.31-.56,2.41,2.41,0,0,0-.34-.37,3.27,3.27,0,0,0-.36-.25L3.41,2a2.62,2.62,0,0,0-.33-.09,1.25,1.25,0,0,0-.19,0,2.67,2.67,0,0,0-.4,0,1.07,1.07,0,0,0-.25,0,1.93,1.93,0,0,0-.52.15,2.16,2.16,0,0,0-.36.2,2.42,2.42,0,0,0-.42.37,2.06,2.06,0,0,0-.3.41l0,0V2.27a.1.1,0,0,0,.05,0L.87,2a2.9,2.9,0,0,1,.36-.25l.31-.16.33-.12s0,0,.06,0l.38,0h.11a4.7,4.7,0,0,1,.51.12,3.81,3.81,0,0,1,.44.15,5,5,0,0,1,.57.28l.39.26a2.75,2.75,0,0,1,.26.22L5,2.91c.09.1.17.21.25.31s0,0,0,.06a1.89,1.89,0,0,1,.1.41,1.35,1.35,0,0,1,0,.29,2.32,2.32,0,0,1,0,.59,1.89,1.89,0,0,1-.1.41A2.78,2.78,0,0,1,5,5.54c-.08.12-.16.24-.25.35l-.24.25a2.48,2.48,0,0,1-.3.25,3.38,3.38,0,0,1-.41.24,2.51,2.51,0,0,1-.46.16L3,6.86l-.23,0L3,6.66l0-.07s0,0,0,0H1.34A.71.71,0,0,1,1,6.5l0,0s0,0,0,0H1a.13.13,0,0,0-.09-.07A.64.64,0,0,1,.64,6a.4.4,0,0,1,0-.15Z" transform="translate(-0.59 -1.47)"/><path class="cls-10" d="M6.05,2.73c0,.1.07.19.1.28a3.16,3.16,0,0,1,.13.53,2.6,2.6,0,0,1,0,.39c0,.1,0,.21,0,.31s0,.17,0,.26a3,3,0,0,1-.07.43,3,3,0,0,1-.18.58,3.09,3.09,0,0,1-.14.32,3,3,0,0,1-.36.57c-.07.09-.15.17-.22.25l-.14.16c-.15.13-.3.26-.46.38a2.87,2.87,0,0,1-.48.28,3.8,3.8,0,0,1-.84.3L3,7.83l-.18,0H2.54l-.27,0L2,7.81l.18-.22.3-.37h.06a2.43,2.43,0,0,0,.27,0l.25,0a3.89,3.89,0,0,0,.49-.12A2.47,2.47,0,0,0,4,6.9l.23-.13a3.2,3.2,0,0,0,.55-.42l.13-.15a2.88,2.88,0,0,0,.22-.27,2.62,2.62,0,0,0,.33-.59L5.6,5a2.43,2.43,0,0,0,.08-.47,2.45,2.45,0,0,0,0-.27,1.22,1.22,0,0,0,0-.27,1.62,1.62,0,0,1,0-.2,2.7,2.7,0,0,0-.08-.41L5.83,3C5.9,2.92,6,2.83,6.05,2.73Z" transform="translate(-0.59 -1.47)"/><path class="cls-11" d="M5.59,3.33a2.7,2.7,0,0,1,.08.41,1.62,1.62,0,0,0,0,.2,1.22,1.22,0,0,1,0,.27,2.45,2.45,0,0,1,0,.27A2.43,2.43,0,0,1,5.6,5l-.14.39a2.62,2.62,0,0,1-.33.59,2.88,2.88,0,0,1-.22.27l-.13.15a3.2,3.2,0,0,1-.55.42L4,6.9a2.47,2.47,0,0,1-.42.17,3.89,3.89,0,0,1-.49.12l-.25,0a2.43,2.43,0,0,1-.27,0h0l.27-.33.23,0,.31-.07a2.51,2.51,0,0,0,.46-.16,3.38,3.38,0,0,0,.41-.24,2.48,2.48,0,0,0,.3-.25l.24-.25c.09-.11.17-.23.25-.35A2.78,2.78,0,0,0,5.23,5a1.89,1.89,0,0,0,.1-.41,2.32,2.32,0,0,0,0-.59,1.35,1.35,0,0,0,0-.29,1.89,1.89,0,0,0-.1-.41s0,0,0-.06l.22.3Z" transform="translate(-0.59 -1.47)"/><path class="cls-12" d="M1.93,1.47s0,0-.06,0l-.33.12-.31.16A2.9,2.9,0,0,0,.87,2l-.21.19a.1.1,0,0,1-.05,0,.73.73,0,0,1,.45-.75.7.7,0,0,1,.25-.05h.62Z" transform="translate(-0.59 -1.47)"/><path class="cls-13" d="M.87,6.39A.13.13,0,0,1,1,6.46Z" transform="translate(-0.59 -1.47)"/><path class="cls-14" d="M9.52,11.4a0,0,0,0,1,0,0Z" transform="translate(-0.59 -1.47)"/><path class="cls-13" d="M1,6.46s0,0,0,0Z" transform="translate(-0.59 -1.47)"/><path class="cls-15" d="M3,6.57s0,0,0,0Z" transform="translate(-0.59 -1.47)"/><path class="cls-16" d="M2.62,5.82A1.67,1.67,0,1,1,4.3,4.19,1.67,1.67,0,0,1,2.62,5.82Z" transform="translate(-0.59 -1.47)"/></svg>