<svg id="Layer_1" data-name="Layer 1" xmlns="http://www.w3.org/2000/svg" viewBox="0 0 38.85 31.06"><defs><style>.cls-1{fill:#119a8e;}.cls-2{fill:#17a68b;}.cls-3{fill:#21bc87;}.cls-4{fill:#1db389;}.cls-5{fill:#27c885;}.cls-6{fill:#1aad8a;}.cls-7{fill:#139e8d;}.cls-8{fill:#31df80;}.cls-9{fill:#2fda81;}.cls-10{fill:#2bd383;}.cls-11{fill:#2dd782;}.cls-12{fill:#2ed783;}.cls-13{fill:#32d985;}.cls-14{fill:#4db2aa;}.cls-15{fill:#ccf7e0;}.cls-16{fill:#35e77e;}</style></defs><title>AwtarLogo</title><path class="cls-1" d="M42.61,26.13c0-.55,0-1.1,0-1.65,0-.3,0-.6,0-.9,0-1.2,0-2.41,0-3.61a1.86,1.86,0,0,0-.49-1.39,2.21,2.21,0,0,1,.12-.27c.26-.47.53-.93.78-1.4a9.47,9.47,0,0,0,.43-.91c.2-.48.41-1,.59-1.45a19.52,19.52,0,0,0,.72-2.48c.12-.55.21-1.1.3-1.66.05-.34.08-.69.11-1s.06-.62.06-.92c0-.56,0-1.12,0-1.68,0-.3,0-.61-.06-.91l-.06-.53c0-.34-.08-.67-.14-1-.09-.5-.18-1-.3-1.48s-.25-.87-.37-1.3L44.13.87c.39,0,.77,0,1.15,0a1.11,1.11,0,0,1,1,.91,1.19,1.19,0,0,1,0,.46.49.49,0,0,0,0,.12l0,2.17L46.19,8l-.06,2.86c0,.71,0,1.41,0,2.11a2.43,2.43,0,0,0,.42,1.5,2.18,2.18,0,0,0,1.37.9,2.36,2.36,0,0,0,.53,0H49l2.95,0,3.81.06h1a.9.9,0,0,1,.88,1,.86.86,0,0,0,0,.16c0,1.58,0,3.16,0,4.74l0,5.87c0,.83,0,1.67,0,2.5a2.62,2.62,0,0,0,0,.28.9.9,0,0,1-.73.93h-.18l-5,0-4.1,0a5.46,5.46,0,0,1-.7,0,5.86,5.86,0,0,1-.94-.23,4.65,4.65,0,0,1-3.14-3.62,3.29,3.29,0,0,1-.08-.83A.07.07,0,0,0,42.61,26.13Z" transform="translate(-19.31 -0.41)"/><path class="cls-2" d="M44.13.87l.21.67c.12.43.26.86.37,1.3s.21,1,.3,1.48c.06.34.1.67.14,1l.06.53c0,.3,0,.61.06.91,0,.56,0,1.12,0,1.68,0,.3,0,.61-.06.92s-.06.7-.11,1c-.09.56-.18,1.11-.3,1.66a19.52,19.52,0,0,1-.72,2.48c-.18.49-.39,1-.59,1.45a9.47,9.47,0,0,1-.43.91c-.25.47-.52.93-.78,1.4a2.21,2.21,0,0,0-.12.27,1.7,1.7,0,0,0-.66-.39,1.66,1.66,0,0,0-1.46.26l-.09.11c-.29.35-.58.69-.86,1.05s-.57.71-.85,1.07-.57.69-.85,1.05l-.84,1.05c-.21.27-.43.53-.64.79l-.62.79L35,24.7a.15.15,0,0,0-.18,0l-.59.32c-.49.25-1,.5-1.48.7s-.94.37-1.42.54-.73.23-1.1.34-.7.18-1.05.25a13.41,13.41,0,0,1-1.54.27l-.7.08-.36,0c-.28,0-.56.05-.84.05-.65,0-1.29,0-1.93,0l-.54,0-.84-.11c-.28,0-.57-.06-.85-.12l-1.37-.3-.33-.06s0-.06,0-.09c0-.65,0-1.3,0-1.94v-.06l.1-.11a.34.34,0,0,1,.13,0l.44.12a16.37,16.37,0,0,0,2,.4l.82.11.71.05q.45,0,.9,0l.55,0c.24,0,.49,0,.73,0s.46,0,.69-.06.6-.06.9-.11.75-.13,1.13-.22a18.52,18.52,0,0,0,2.2-.65,16.31,16.31,0,0,0,1.66-.72c.45-.22.89-.47,1.33-.73a13.07,13.07,0,0,0,1.34-.9l1.05-.85.84-.76c.12-.11.22-.25.34-.36a10,10,0,0,0,.75-.84c.18-.22.37-.44.53-.67.29-.39.56-.79.83-1.19a15.64,15.64,0,0,0,.83-1.43c.09-.17.16-.34.24-.51l.3-.66c.23-.57.44-1.15.62-1.74a14.81,14.81,0,0,0,.46-2c.07-.45.14-.89.2-1.34,0-.24,0-.48.05-.72s0-.58,0-.87,0-.6,0-.9,0-.42,0-.63,0-.22,0-.33-.05-.42-.08-.63-.06-.55-.12-.81C42.15,4,42,3.52,41.9,3a13.6,13.6,0,0,0-.57-1.74A1.12,1.12,0,0,1,41.2.9h0l2.8,0Z" transform="translate(-19.31 -0.41)"/><path class="cls-3" d="M35.41,1.91A2.4,2.4,0,0,1,36.86,1a2.11,2.11,0,0,1,.75,0,.35.35,0,0,0,.06.22,13.53,13.53,0,0,1,.79,1.79A14.24,14.24,0,0,1,39,5.07a8.39,8.39,0,0,1,.16,1.12l0,.34a4.48,4.48,0,0,1,.05.64,12,12,0,0,1,0,1.34c0,.19,0,.38,0,.57s-.07.53-.11.79-.12.67-.19,1a12.1,12.1,0,0,1-.55,1.8c-.12.32-.24.63-.39.94A14.94,14.94,0,0,1,37.23,15a11.74,11.74,0,0,1-.74,1.1c-.15.2-.31.4-.47.59a7.72,7.72,0,0,1-.53.61,16.08,16.08,0,0,1-1.41,1.33l-.71.55a9.84,9.84,0,0,1-1.41.89c-.45.25-.93.47-1.4.68a11.74,11.74,0,0,1-1.78.62,12,12,0,0,1-2.2.4l-.33,0c-.2,0-.4.05-.6.06a13.69,13.69,0,0,1-1.81-.06c-.22,0-.45,0-.67-.06s-.57-.08-.85-.14a14.85,14.85,0,0,1-1.74-.46l-.26-.08a3.24,3.24,0,0,1,.44-.71l1-1.28,0,0c.11,0,.22.07.33.09.3.07.61.14.91.19s.45.06.67.09l.31,0c.21,0,.42.05.64.05a7.22,7.22,0,0,0,.93,0c.24,0,.48,0,.72-.06s.58-.07.86-.12a11.34,11.34,0,0,0,1.62-.42c.38-.14.76-.3,1.15-.46a9.17,9.17,0,0,0,1.41-.76,9.4,9.4,0,0,0,1.15-.84c.17-.15.36-.28.52-.44a12.41,12.41,0,0,0,1.16-1.24c.19-.26.4-.5.58-.77s.42-.68.63-1A7.64,7.64,0,0,0,36,12.18c.14-.37.27-.74.39-1.12s.2-.75.28-1.13.1-.64.14-1a6.69,6.69,0,0,0,.08-.88c0-.42,0-.84,0-1.26h0c0-.28-.07-.56-.12-.85s-.11-.67-.19-1a9.26,9.26,0,0,0-.37-1.24A10.37,10.37,0,0,0,35.44,2,.53.53,0,0,1,35.41,1.91Z" transform="translate(-19.31 -0.41)"/><path class="cls-4" d="M20.32,21.1l.26.08a14.85,14.85,0,0,0,1.74.46c.28.06.56.1.85.14s.45,0,.67.06a13.69,13.69,0,0,0,1.81.06c.2,0,.4,0,.6-.06l.33,0a12,12,0,0,0,2.2-.4,11.74,11.74,0,0,0,1.78-.62c.47-.21,1-.43,1.4-.68a9.84,9.84,0,0,0,1.41-.89l.71-.55a16.08,16.08,0,0,0,1.41-1.33,7.72,7.72,0,0,0,.53-.61c.16-.19.32-.39.47-.59a11.74,11.74,0,0,0,.74-1.1A14.94,14.94,0,0,0,38,13.61c.15-.31.27-.62.39-.94a12.1,12.1,0,0,0,.55-1.8c.07-.33.13-.66.19-1s.08-.53.11-.79,0-.38,0-.57a12,12,0,0,0,0-1.34,4.48,4.48,0,0,0-.05-.64l0-.34A8.39,8.39,0,0,0,39,5.07a14.24,14.24,0,0,0-.57-2.13,13.53,13.53,0,0,0-.79-1.79.35.35,0,0,1-.06-.22h.65l1.19,0h.11c0,.06,0,.11,0,.16s.18.4.26.61a10.72,10.72,0,0,1,.51,1.44c.12.43.24.86.33,1.29A11,11,0,0,1,41,5.92c0,.26.06.52.08.78s0,.44,0,.66a6.18,6.18,0,0,1,0,.86c0,.23,0,.46,0,.69s0,.31,0,.46-.07.5-.11.75-.13.77-.21,1.15a14.43,14.43,0,0,1-.58,1.94c-.18.49-.39,1-.61,1.44-.11.22-.23.44-.35.66a9.79,9.79,0,0,1-.63,1.08,13.89,13.89,0,0,1-1.26,1.68l-.71.79a5.49,5.49,0,0,1-.43.4c-.21.2-.43.41-.65.6s-.45.39-.69.56l-1,.71a14.66,14.66,0,0,1-1.49.85c-.34.17-.7.32-1.05.48a13.92,13.92,0,0,1-1.68.59A13.2,13.2,0,0,1,28,23.4c-.32.05-.65.12-1,.16s-.61.07-.92.09-.52,0-.78,0a5.72,5.72,0,0,1-.83,0c-.21,0-.41,0-.62,0s-.6-.05-.89-.09-.66-.08-1-.14a17.52,17.52,0,0,1-1.89-.5,1.66,1.66,0,0,0-.22,0c0-.24,0-.49.08-.72A3,3,0,0,1,20.32,21.1Z" transform="translate(-19.31 -0.41)"/><path class="cls-5" d="M35.41,1.91a.53.53,0,0,0,0,.12,10.37,10.37,0,0,1,.76,1.7A9.26,9.26,0,0,1,36.57,5c.08.33.14.67.19,1s.08.57.12.85h0c0,.42,0,.84,0,1.26a6.69,6.69,0,0,1-.08.88c0,.32-.08.64-.14,1s-.17.76-.28,1.13-.25.75-.39,1.12a7.64,7.64,0,0,1-.57,1.19c-.21.34-.41.69-.63,1s-.39.51-.58.77a12.41,12.41,0,0,1-1.16,1.24c-.16.16-.35.29-.52.44a9.4,9.4,0,0,1-1.15.84,9.17,9.17,0,0,1-1.41.76c-.39.16-.77.32-1.15.46a11.34,11.34,0,0,1-1.62.42c-.28.05-.57.08-.86.12s-.48,0-.72.06a7.22,7.22,0,0,1-.93,0c-.22,0-.43,0-.64-.05l-.31,0c-.22,0-.45-.05-.67-.09s-.61-.12-.91-.19c-.11,0-.22-.06-.33-.09l.56-.69,1.07-1.3a.46.46,0,0,1,.07-.07l.61.06c.22,0,.45.05.67.05a4.39,4.39,0,0,0,.81,0c.16,0,.32,0,.48,0,.33-.05.67-.1,1-.18a9.15,9.15,0,0,0,2.15-.75,9.58,9.58,0,0,0,1.19-.71,11.15,11.15,0,0,0,1.18-1c.13-.12.25-.26.37-.39s.37-.42.55-.64A8.16,8.16,0,0,0,33.47,12c.13-.26.25-.53.36-.8a7.85,7.85,0,0,0,.45-1.5,6.44,6.44,0,0,0,.17-1.07c0-.23,0-.45,0-.67a5.18,5.18,0,0,0,0-.79,8.27,8.27,0,0,0-.12-1A9,9,0,0,0,34,4.79c-.08-.23-.17-.47-.26-.71l.54-.75,1-1.35A.46.46,0,0,1,35.41,1.91Z" transform="translate(-19.31 -0.41)"/><path class="cls-6" d="M19.89,22.86a1.66,1.66,0,0,1,.22,0,17.52,17.52,0,0,0,1.89.5c.32.06.65.1,1,.14s.59.07.89.09.41,0,.62,0a5.72,5.72,0,0,0,.83,0c.26,0,.52,0,.78,0s.62,0,.92-.09.66-.11,1-.16a13.2,13.2,0,0,0,1.51-.35,13.92,13.92,0,0,0,1.68-.59c.35-.16.71-.31,1.05-.48a14.66,14.66,0,0,0,1.49-.85l1-.71c.24-.17.46-.37.69-.56s.44-.4.65-.6a5.49,5.49,0,0,0,.43-.4l.71-.79a13.89,13.89,0,0,0,1.26-1.68,9.79,9.79,0,0,0,.63-1.08c.12-.22.24-.44.35-.66.22-.47.43-1,.61-1.44a14.43,14.43,0,0,0,.58-1.94c.08-.38.14-.77.21-1.15s.08-.5.11-.75,0-.31,0-.46,0-.46,0-.69a6.18,6.18,0,0,0,0-.86c0-.22,0-.44,0-.66S41,6.18,41,5.92a11,11,0,0,0-.24-1.51c-.09-.43-.21-.86-.33-1.29a10.72,10.72,0,0,0-.51-1.44c-.08-.21-.17-.41-.26-.61s0-.1,0-.16H41.2a1.12,1.12,0,0,0,.13.39A13.6,13.6,0,0,1,41.9,3c.13.49.25,1,.36,1.49.06.26.08.54.12.81s.06.42.08.63,0,.22,0,.33,0,.42,0,.63,0,.6,0,.9,0,.58,0,.87,0,.48-.05.72c-.06.45-.13.89-.2,1.34a14.81,14.81,0,0,1-.46,2c-.18.59-.39,1.17-.62,1.74l-.3.66c-.08.17-.15.34-.24.51a15.64,15.64,0,0,1-.83,1.43c-.27.4-.54.8-.83,1.19-.16.23-.35.45-.53.67a10,10,0,0,1-.75.84c-.12.11-.22.25-.34.36l-.84.76-1.05.85a13.07,13.07,0,0,1-1.34.9c-.44.26-.88.51-1.33.73a16.31,16.31,0,0,1-1.66.72,18.52,18.52,0,0,1-2.2.65c-.38.09-.75.15-1.13.22s-.6.08-.9.11-.46,0-.69.06-.49,0-.73,0l-.55,0q-.45,0-.9,0l-.71-.05L22.52,25a16.37,16.37,0,0,1-2-.4l-.44-.12a.34.34,0,0,0-.13,0l-.1.11V23.17C19.88,23.06,19.88,23,19.89,22.86Z" transform="translate(-19.31 -0.41)"/><path class="cls-7" d="M19.9,26.64l.33.06,1.37.3c.28.06.57.08.85.12l.84.11.54,0c.64.06,1.28,0,1.93,0,.28,0,.56,0,.84-.05l.36,0,.7-.08a13.41,13.41,0,0,0,1.54-.27c.35-.07.7-.16,1.05-.25s.74-.21,1.1-.34.95-.35,1.42-.54,1-.45,1.48-.7l.59-.32a.15.15,0,0,1,.18,0c-.14.17-.27.35-.41.53l-.81,1-.93,1.16-2.36,2.95a1.67,1.67,0,0,1-1.32.65H21a1,1,0,0,1-1-1.06c0-1.06,0-2.11,0-3.16Z" transform="translate(-19.31 -0.41)"/><path class="cls-8" d="M19.94,10.41c0-.05,0-.09,0-.13V5.11s0-.08,0-.12.06,0,.08-.08a5.91,5.91,0,0,1,.75-1.05,5.36,5.36,0,0,1,1.08-.93,6.23,6.23,0,0,1,.91-.51A5.43,5.43,0,0,1,24.08,2,4.48,4.48,0,0,1,24.72,2a6.84,6.84,0,0,1,1,0c.16,0,.33,0,.5.07a7.93,7.93,0,0,1,.83.25,4.8,4.8,0,0,1,.83.38,5.68,5.68,0,0,1,.91.63,5.82,5.82,0,0,1,.87.92,6.12,6.12,0,0,1,.79,1.44,5.92,5.92,0,0,1,.3,2.86,7,7,0,0,1-.22.93A5.41,5.41,0,0,1,30,10.62a5.12,5.12,0,0,1-.8,1.05c-.15.14-.3.29-.45.42a5.28,5.28,0,0,1-1,.66,5.61,5.61,0,0,1-1.28.51,4.26,4.26,0,0,1-1,.16,6,6,0,0,1-1.12,0c-.22,0-.45-.05-.66-.1a5.64,5.64,0,0,1-1.63-.66,5.08,5.08,0,0,1-.88-.64c-.2-.18-.37-.38-.55-.57a6.36,6.36,0,0,1-.62-.85C20,10.52,20,10.43,19.94,10.41Zm5.11,1.52a4.24,4.24,0,1,0-4.24-4.32A4.27,4.27,0,0,0,25.05,11.93Z" transform="translate(-19.31 -0.41)"/><path class="cls-9" d="M19.94,10.41c.09,0,.1.11.13.17a6.36,6.36,0,0,0,.62.85c.18.19.35.39.55.57a5.08,5.08,0,0,0,.88.64,5.64,5.64,0,0,0,1.63.66c.21,0,.44.07.66.1a6,6,0,0,0,1.12,0,4.26,4.26,0,0,0,1-.16,5.61,5.61,0,0,0,1.28-.51,5.28,5.28,0,0,0,1-.66c.15-.13.3-.28.45-.42a5.12,5.12,0,0,0,.8-1.05,5.41,5.41,0,0,0,.52-1.15,7,7,0,0,0,.22-.93,5.92,5.92,0,0,0-.3-2.86,6.12,6.12,0,0,0-.79-1.44,5.82,5.82,0,0,0-.87-.92,5.68,5.68,0,0,0-.91-.63,4.8,4.8,0,0,0-.83-.38,7.93,7.93,0,0,0-.83-.25c-.17,0-.34,0-.5-.07a6.84,6.84,0,0,0-1,0,4.48,4.48,0,0,0-.64.06,5.43,5.43,0,0,0-1.32.39,6.23,6.23,0,0,0-.91.51,5.36,5.36,0,0,0-1.08.93A5.91,5.91,0,0,0,20,4.91S20,5,19.94,5c0-.32,0-.64,0-1s0-.76,0-1.13a.54.54,0,0,0,.12-.09c.18-.16.34-.33.53-.49a6.73,6.73,0,0,1,.93-.65q.38-.21.78-.39c.27-.11.55-.2.83-.3.06,0,.13,0,.17-.11l1,.1a2.48,2.48,0,0,1,.27,0c.43.08.87.18,1.3.3a10.36,10.36,0,0,1,1.11.38,12.23,12.23,0,0,1,1.45.72,11.78,11.78,0,0,1,1,.67,5.86,5.86,0,0,1,.67.54q.49.45,1,.93c.23.25.42.52.63.78-.06,0,0,.11,0,.16a6,6,0,0,1,.25,1,6.42,6.42,0,0,1,.1.75,7.65,7.65,0,0,1-.08,1.51,7.46,7.46,0,0,1-.24,1,7.41,7.41,0,0,1-.63,1.41,6.37,6.37,0,0,1-.64.9c-.19.22-.4.43-.6.63a5.09,5.09,0,0,1-.76.63A6.2,6.2,0,0,1,28,14a5.37,5.37,0,0,1-1.16.42c-.26.07-.53.12-.79.17l-.57.06.45-.56.13-.17s0,0,0-.05H21.78a1.85,1.85,0,0,1-.8-.19l-.08-.05s0,0-.09,0h0a.26.26,0,0,0-.23-.17,1.65,1.65,0,0,1-.58-.9,1.19,1.19,0,0,1-.06-.37C19.93,11.55,19.94,11,19.94,10.41Z" transform="translate(-19.31 -0.41)"/><path class="cls-10" d="M33.77,4.08c.09.24.18.48.26.71a9,9,0,0,1,.33,1.34,8.27,8.27,0,0,1,.12,1,5.18,5.18,0,0,1,0,.79c0,.22,0,.44,0,.67a6.44,6.44,0,0,1-.17,1.07,7.85,7.85,0,0,1-.45,1.5c-.11.27-.23.54-.36.8a8.16,8.16,0,0,1-.92,1.46c-.18.22-.37.43-.55.64s-.24.27-.37.39a11.15,11.15,0,0,1-1.18,1,9.58,9.58,0,0,1-1.19.71,9.15,9.15,0,0,1-2.15.75c-.32.08-.66.13-1,.18-.16,0-.32,0-.48,0a4.39,4.39,0,0,1-.81,0c-.22,0-.45,0-.67-.05L23.55,17l.45-.57.76-.93,0,0a.65.65,0,0,0,.13,0,5.31,5.31,0,0,0,.69,0c.21,0,.43,0,.64-.06a8.69,8.69,0,0,0,1.22-.3,8.56,8.56,0,0,0,1.09-.44,6.65,6.65,0,0,0,.58-.33,7.69,7.69,0,0,0,1.4-1.08,3.89,3.89,0,0,0,.34-.36c.19-.23.38-.46.56-.7a7,7,0,0,0,.83-1.49c.13-.33.24-.66.35-1a6.08,6.08,0,0,0,.22-1.19c0-.24,0-.47,0-.7a3.1,3.1,0,0,0,0-.68,4.57,4.57,0,0,1,0-.52,7.37,7.37,0,0,0-.21-1l.61-.81Z" transform="translate(-19.31 -0.41)"/><path class="cls-11" d="M32.61,5.6a7.37,7.37,0,0,1,.21,1,4.57,4.57,0,0,0,0,.52,3.1,3.1,0,0,1,0,.68c0,.23,0,.46,0,.7a6.08,6.08,0,0,1-.22,1.19c-.11.34-.22.67-.35,1a7,7,0,0,1-.83,1.49c-.18.24-.37.47-.56.7a3.89,3.89,0,0,1-.34.36,7.69,7.69,0,0,1-1.4,1.08,6.65,6.65,0,0,1-.58.33,8.56,8.56,0,0,1-1.09.44,8.69,8.69,0,0,1-1.22.3c-.21,0-.43,0-.64.06a5.31,5.31,0,0,1-.69,0,.65.65,0,0,1-.13,0l.7-.84.57-.06c.26-.05.53-.1.79-.17A5.37,5.37,0,0,0,28,14a6.2,6.2,0,0,0,1.06-.61,5.09,5.09,0,0,0,.76-.63c.2-.2.41-.41.6-.63a6.37,6.37,0,0,0,.64-.9,7.41,7.41,0,0,0,.63-1.41,7.46,7.46,0,0,0,.24-1A7.65,7.65,0,0,0,32,7.26a6.42,6.42,0,0,0-.1-.75,6,6,0,0,0-.25-1c0-.05-.07-.11,0-.16l.56.78Z" transform="translate(-19.31 -0.41)"/><path class="cls-12" d="M23.3.87c0,.08-.11.09-.17.11-.28.1-.56.19-.83.3s-.53.25-.78.39a6.73,6.73,0,0,0-.93.65c-.19.16-.35.33-.53.49a.54.54,0,0,1-.12.09A1.85,1.85,0,0,1,21.07,1,1.74,1.74,0,0,1,21.7.86h1.6Z" transform="translate(-19.31 -0.41)"/><path class="cls-13" d="M20.58,13.4a.26.26,0,0,1,.23.17Z" transform="translate(-19.31 -0.41)"/><path class="cls-14" d="M42.61,26.13a.07.07,0,0,1,0,.12Z" transform="translate(-19.31 -0.41)"/><path class="cls-13" d="M20.81,13.57s.08,0,.09,0Z" transform="translate(-19.31 -0.41)"/><path class="cls-15" d="M26.06,13.86c.05,0,0,0,0,.05Z" transform="translate(-19.31 -0.41)"/><path class="cls-16" d="M25.05,11.93a4.24,4.24,0,1,1,4.26-4.14A4.27,4.27,0,0,1,25.05,11.93Z" transform="translate(-19.31 -0.41)"/><path class="cls-1" d="M42.73,26.44c0-.57,0-1.13,0-1.7,0-.31,0-.62,0-.93,0-1.24,0-2.48,0-3.72a2,2,0,0,0-.5-1.44,1.28,1.28,0,0,1,.11-.27c.27-.48.55-1,.81-1.44.16-.3.31-.62.44-.93.21-.5.43-1,.61-1.51A18.62,18.62,0,0,0,45,12c.13-.56.22-1.13.31-1.7q.07-.54.12-1.08a7.46,7.46,0,0,0,0-.95c0-.57,0-1.15,0-1.72,0-.32,0-.63-.07-.94s0-.37-.06-.55c0-.34-.08-.69-.14-1-.1-.51-.19-1-.31-1.52s-.26-.89-.39-1.34c-.06-.23-.13-.46-.2-.69.39,0,.78,0,1.17,0a1.13,1.13,0,0,1,1,.94,1.23,1.23,0,0,1,0,.47.49.49,0,0,0,0,.12c0,.74,0,1.49,0,2.24l-.06,3.57c0,1,0,2,0,2.95,0,.72,0,1.45,0,2.17a2.57,2.57,0,0,0,.43,1.55,2.31,2.31,0,0,0,1.41.93,5.12,5.12,0,0,0,.56,0h.55l3,0,3.92.05,1,0a.91.91,0,0,1,.9,1v.16c0,1.63,0,3.26,0,4.89l0,6c0,.86,0,1.72,0,2.58,0,.09,0,.19,0,.29a.91.91,0,0,1-.75.95h-.18l-5.21,0-4.21,0a5.88,5.88,0,0,1-.73,0,6.25,6.25,0,0,1-1-.24,4.8,4.8,0,0,1-3.23-3.72,3.58,3.58,0,0,1-.08-.86A.09.09,0,0,0,42.73,26.44Z" transform="translate(-19.31 -0.41)"/><path class="cls-2" d="M44.3.42c.07.23.14.46.2.69.13.45.28.89.39,1.34s.21,1,.31,1.52c.06.35.1.7.14,1,0,.18,0,.37.06.55s0,.62.07.94c0,.57,0,1.15,0,1.72a7.46,7.46,0,0,1,0,.95q0,.54-.12,1.08c-.09.57-.18,1.14-.31,1.7a18.62,18.62,0,0,1-.74,2.55c-.18.51-.4,1-.61,1.51-.13.31-.28.63-.44.93-.26.48-.54,1-.81,1.44a1.28,1.28,0,0,0-.11.27,2,2,0,0,0-.69-.4,1.72,1.72,0,0,0-1.5.28.94.94,0,0,0-.1.1c-.29.36-.59.72-.88,1.09s-.58.73-.88,1.1-.58.72-.87,1.08L36.51,23c-.22.27-.45.54-.66.81l-.65.81c-.09.12-.19.23-.29.35a.17.17,0,0,0-.19,0l-.61.34c-.5.25-1,.51-1.52.71s-1,.39-1.46.56-.75.24-1.13.35-.72.19-1.09.26a13.88,13.88,0,0,1-1.59.27l-.71.08a2.43,2.43,0,0,1-.38,0c-.29,0-.57.06-.86.06-.66,0-1.33,0-2,0-.18,0-.37,0-.55,0L22,27.46c-.29,0-.58-.07-.87-.13-.47-.09-.94-.2-1.41-.31L19.34,27a.28.28,0,0,1,0-.09c0-.67,0-1.34,0-2,0,0,0,0,0-.06l.1-.12.13,0,.45.13a15.67,15.67,0,0,0,2,.41l.84.11c.24,0,.49.05.73.06s.62,0,.93,0,.38,0,.56,0,.5,0,.76,0,.47,0,.7-.07.62-.06.93-.11L28.65,25a18.6,18.6,0,0,0,2.28-.68,17,17,0,0,0,1.7-.73c.47-.24.92-.5,1.37-.76a12.81,12.81,0,0,0,1.38-.93q.55-.42,1.08-.87c.3-.26.58-.52.87-.79.12-.11.23-.25.35-.37.27-.27.52-.56.77-.86s.38-.45.55-.69c.29-.4.57-.81.85-1.22s.59-1,.86-1.48c.09-.17.16-.35.24-.53s.22-.44.31-.67c.24-.59.46-1.19.64-1.8a15.75,15.75,0,0,0,.48-2c.07-.46.14-.92.2-1.38,0-.24,0-.49.06-.73s0-.6,0-.9,0-.62,0-.93l0-.65,0-.34L42.49,5c0-.28-.07-.56-.13-.84Q42.2,3.41,42,2.64A16.29,16.29,0,0,0,41.41.85a1.12,1.12,0,0,1-.14-.4h.06l2.88,0Z" transform="translate(-19.31 -0.41)"/><path class="cls-3" d="M35.31,1.49a2.49,2.49,0,0,1,1.49-1,2.28,2.28,0,0,1,.78-.05.38.38,0,0,0,.06.23,12.54,12.54,0,0,1,.81,1.84A14.19,14.19,0,0,1,39,4.74a11.58,11.58,0,0,1,.17,1.16l0,.34c0,.22,0,.44,0,.66a12.71,12.71,0,0,1,0,1.38c0,.2,0,.4,0,.59s-.06.55-.11.82-.12.69-.2,1a12.41,12.41,0,0,1-.56,1.86c-.12.32-.25.65-.4,1-.24.5-.48,1-.77,1.48s-.49.76-.76,1.12-.32.41-.49.61-.36.44-.55.64a15.55,15.55,0,0,1-1.45,1.36l-.73.57a9.88,9.88,0,0,1-1.45.92c-.47.25-1,.48-1.45.7a12,12,0,0,1-1.83.63,12.6,12.6,0,0,1-2.27.42l-.33,0c-.21,0-.41.05-.62.05A13,13,0,0,1,23.39,22c-.22,0-.46,0-.69-.06s-.59-.09-.88-.15A15.58,15.58,0,0,1,20,21.33l-.27-.07a3.12,3.12,0,0,1,.45-.74L21.3,19.2l.05,0,.33.09.94.2.69.09.32,0c.22,0,.44.05.66.05s.63,0,.95,0l.75-.06c.3,0,.59-.07.89-.13A10.66,10.66,0,0,0,28.54,19c.4-.14.79-.31,1.18-.47a10.29,10.29,0,0,0,1.46-.79,10.87,10.87,0,0,0,1.19-.86c.17-.16.36-.29.53-.45a13.07,13.07,0,0,0,1.19-1.28c.2-.27.42-.52.61-.8s.43-.7.64-1.05a7.68,7.68,0,0,0,.58-1.23c.15-.37.29-.76.41-1.14s.21-.78.29-1.17.1-.66.14-1,.08-.61.09-.91,0-.86,0-1.29h0c0-.29-.07-.59-.11-.87s-.12-.7-.2-1a11.55,11.55,0,0,0-.38-1.27,11.13,11.13,0,0,0-.79-1.76A.53.53,0,0,1,35.31,1.49Z" transform="translate(-19.31 -0.41)"/><path class="cls-4" d="M19.77,21.26l.27.07a15.58,15.58,0,0,0,1.78.48c.29.06.59.11.88.15s.47,0,.69.06a13,13,0,0,0,1.87.05c.21,0,.41,0,.62-.05l.33,0a12.6,12.6,0,0,0,2.27-.42,12,12,0,0,0,1.83-.63c.49-.22,1-.45,1.45-.7a9.88,9.88,0,0,0,1.45-.92l.73-.57a15.55,15.55,0,0,0,1.45-1.36c.19-.2.37-.42.55-.64s.33-.4.49-.61c.27-.36.52-.74.76-1.12s.53-1,.77-1.48c.15-.31.28-.64.4-1a12.41,12.41,0,0,0,.56-1.86c.08-.34.14-.69.2-1s.08-.54.11-.82,0-.39,0-.59a12.71,12.71,0,0,0,0-1.38c0-.22,0-.44,0-.66l0-.34A11.58,11.58,0,0,0,39,4.74a14.19,14.19,0,0,0-.59-2.19A12.54,12.54,0,0,0,37.64.71a.38.38,0,0,1-.06-.23h.66l1.23,0h.11a1.15,1.15,0,0,0,.06.17c.08.2.18.41.27.62a13.14,13.14,0,0,1,.52,1.49c.12.44.25.88.34,1.33A11.61,11.61,0,0,1,41,5.62c0,.27.06.54.09.8s0,.46,0,.68a6.61,6.61,0,0,1,0,.89c0,.23,0,.47,0,.71s0,.31,0,.47-.07.52-.12.77c-.06.4-.13.8-.22,1.19a13.9,13.9,0,0,1-.59,2c-.19.5-.4,1-.63,1.48-.11.23-.24.45-.36.68a9.47,9.47,0,0,1-.65,1.11,14.86,14.86,0,0,1-1.3,1.74l-.72.81c-.14.14-.3.28-.45.41s-.44.42-.67.62-.46.39-.71.57-.69.5-1,.73a12.9,12.9,0,0,1-1.53.88c-.36.18-.72.33-1.09.49a13.15,13.15,0,0,1-1.73.61,13.45,13.45,0,0,1-1.55.37l-1,.16c-.31,0-.63.07-1,.09s-.54,0-.81,0a6,6,0,0,1-.85,0c-.21,0-.42,0-.64,0s-.61-.05-.91-.09-.68-.08-1-.15a19.11,19.11,0,0,1-1.94-.51,1.6,1.6,0,0,0-.23,0c0-.25.05-.5.09-.75A3.1,3.1,0,0,1,19.77,21.26Z" transform="translate(-19.31 -0.41)"/><path class="cls-5" d="M35.31,1.49a.53.53,0,0,0,0,.12,11.13,11.13,0,0,1,.79,1.76,11.55,11.55,0,0,1,.38,1.27c.08.34.14.69.2,1s.07.58.11.87h0c0,.43,0,.86,0,1.29s-.05.61-.09.91-.08.66-.14,1-.18.78-.29,1.17-.26.77-.41,1.14a7.68,7.68,0,0,1-.58,1.23c-.21.35-.42.71-.64,1.05s-.41.53-.61.8a13.07,13.07,0,0,1-1.19,1.28c-.17.16-.36.29-.53.45a10.87,10.87,0,0,1-1.19.86,10.29,10.29,0,0,1-1.46.79c-.39.16-.78.33-1.18.47a10.66,10.66,0,0,1-1.66.43c-.3.06-.59.09-.89.13l-.75.06c-.32,0-.63,0-.95,0s-.44,0-.66-.05l-.32,0-.69-.09-.94-.2-.33-.09c.19-.24.37-.48.57-.71L23,17.11a.46.46,0,0,0,.07-.07l.63.07c.23,0,.46.05.69.05a5.89,5.89,0,0,0,.84,0c.16,0,.33,0,.49,0,.34-.05.69-.1,1-.18A9.52,9.52,0,0,0,29,16.14a8.47,8.47,0,0,0,1.23-.73,11.8,11.8,0,0,0,1.22-1c.13-.13.25-.27.37-.41s.39-.43.57-.65a9,9,0,0,0,1-1.5c.14-.28.26-.56.38-.84a9,9,0,0,0,.46-1.53,7.1,7.1,0,0,0,.17-1.11c0-.23,0-.46.06-.69s0-.54,0-.82-.07-.69-.13-1a8.31,8.31,0,0,0-.34-1.37l-.27-.73L34.18,3c.35-.47.71-.93,1.06-1.39A.46.46,0,0,1,35.31,1.49Z" transform="translate(-19.31 -0.41)"/><path class="cls-6" d="M19.32,23.07a1.6,1.6,0,0,1,.23,0,19.11,19.11,0,0,0,1.94.51c.34.07.68.11,1,.15s.61.07.91.09.43,0,.64,0a6,6,0,0,0,.85,0c.27,0,.55,0,.81,0s.64-.05,1-.09l1-.16a13.45,13.45,0,0,0,1.55-.37A13.15,13.15,0,0,0,31,22.65c.37-.16.73-.31,1.09-.49a12.9,12.9,0,0,0,1.53-.88c.35-.23.7-.47,1-.73s.48-.37.71-.57.45-.41.67-.62.31-.27.45-.41l.72-.81a14.86,14.86,0,0,0,1.3-1.74,9.47,9.47,0,0,0,.65-1.11c.12-.23.25-.45.36-.68.23-.48.44-1,.63-1.48a13.9,13.9,0,0,0,.59-2c.09-.39.16-.79.22-1.19,0-.25.08-.51.12-.77s0-.32,0-.47,0-.48,0-.71a6.61,6.61,0,0,0,0-.89c0-.22,0-.45,0-.68S41,5.89,41,5.62a11.61,11.61,0,0,0-.24-1.55c-.09-.45-.22-.89-.34-1.33a13.14,13.14,0,0,0-.52-1.49c-.09-.21-.19-.42-.27-.62a1.15,1.15,0,0,1-.06-.17h1.69a1.12,1.12,0,0,0,.14.4A16.29,16.29,0,0,1,42,2.64q.2.76.36,1.53c.06.28.09.56.13.84l.09.65,0,.34,0,.65c0,.31,0,.62,0,.93s0,.6,0,.9,0,.49-.06.73c-.06.46-.13.92-.2,1.38a15.75,15.75,0,0,1-.48,2c-.18.61-.4,1.21-.64,1.8-.09.23-.2.45-.31.67s-.15.36-.24.53c-.27.5-.54,1-.86,1.48s-.56.82-.85,1.22c-.17.24-.36.46-.55.69s-.5.59-.77.86c-.12.12-.23.26-.35.37-.29.27-.57.53-.87.79s-.71.59-1.08.87a12.81,12.81,0,0,1-1.38.93c-.45.26-.9.52-1.37.76a17,17,0,0,1-1.7.73,18.6,18.6,0,0,1-2.28.68l-1.16.22c-.31.05-.62.08-.93.11s-.47,0-.7.07-.51,0-.76,0-.37,0-.56,0-.62,0-.93,0-.49,0-.73-.06L22,25.25a15.67,15.67,0,0,1-2-.41l-.45-.13-.13,0-.1.12c0-.48,0-.95,0-1.43C19.31,23.28,19.32,23.17,19.32,23.07Z" transform="translate(-19.31 -0.41)"/><path class="cls-7" d="M19.34,27l.34.06c.47.11.94.22,1.41.31.29.06.58.09.87.13l.87.11c.18,0,.37,0,.55,0,.66.06,1.33,0,2,0,.29,0,.57,0,.86-.06a2.43,2.43,0,0,0,.38,0l.71-.08a13.88,13.88,0,0,0,1.59-.27c.37-.07.73-.17,1.09-.26s.76-.22,1.13-.35,1-.36,1.46-.56,1-.46,1.52-.71l.61-.34a.17.17,0,0,1,.19,0l-.42.54-.84,1.06c-.31.4-.63.8-.95,1.19l-2.43,3a1.77,1.77,0,0,1-1.36.68H20.46a1.07,1.07,0,0,1-1.09-1.09c0-1.09,0-2.17,0-3.26C19.33,27.07,19.34,27,19.34,27Z" transform="translate(-19.31 -0.41)"/><path class="cls-8" d="M19.37,10.24V4.66s.07,0,.08-.08a6.3,6.3,0,0,1,.78-1.08,6,6,0,0,1,1.11-1A5.75,5.75,0,0,1,22.28,2a5.34,5.34,0,0,1,1.36-.41,4.76,4.76,0,0,1,.66-.06,7.25,7.25,0,0,1,1,0c.17,0,.34,0,.51.08a6.5,6.5,0,0,1,.86.25,6.1,6.1,0,0,1,.86.39A5.42,5.42,0,0,1,28.5,3a5.72,5.72,0,0,1,.9.94,6.45,6.45,0,0,1,.81,1.48A5.66,5.66,0,0,1,30.56,7a6,6,0,0,1,0,1.34,6.38,6.38,0,0,1-.23,1,5.2,5.2,0,0,1-.53,1.18,5.45,5.45,0,0,1-.83,1.08c-.15.15-.3.3-.46.44a5.61,5.61,0,0,1-1,.68,6.25,6.25,0,0,1-1.32.52,5.06,5.06,0,0,1-1,.17,6.4,6.4,0,0,1-1.16,0c-.23,0-.46-.05-.68-.1a5.71,5.71,0,0,1-1.68-.68,5.27,5.27,0,0,1-.91-.66c-.2-.19-.37-.39-.56-.59a5.08,5.08,0,0,1-.64-.88C19.47,10.35,19.47,10.26,19.37,10.24Zm5.27,1.57A4.4,4.4,0,0,0,29,7.55a4.38,4.38,0,0,0-8.76-.19A4.4,4.4,0,0,0,24.64,11.81Z" transform="translate(-19.31 -0.41)"/><path class="cls-9" d="M19.37,10.24c.1,0,.1.11.14.17a5.08,5.08,0,0,0,.64.88c.19.2.36.4.56.59a5.27,5.27,0,0,0,.91.66,5.71,5.71,0,0,0,1.68.68c.22,0,.45.07.68.1a6.4,6.4,0,0,0,1.16,0,5.06,5.06,0,0,0,1-.17,6.25,6.25,0,0,0,1.32-.52,5.61,5.61,0,0,0,1-.68c.16-.14.31-.29.46-.44a5.45,5.45,0,0,0,.83-1.08,5.2,5.2,0,0,0,.53-1.18,6.38,6.38,0,0,0,.23-1,6,6,0,0,0,0-1.34,5.66,5.66,0,0,0-.35-1.61,6.45,6.45,0,0,0-.81-1.48A5.72,5.72,0,0,0,28.5,3a5.42,5.42,0,0,0-.93-.66,6.1,6.1,0,0,0-.86-.39,6.5,6.5,0,0,0-.86-.25c-.17,0-.34,0-.51-.08a7.25,7.25,0,0,0-1,0,4.76,4.76,0,0,0-.66.06A5.34,5.34,0,0,0,22.28,2a5.75,5.75,0,0,0-.94.52,6,6,0,0,0-1.11,1,6.3,6.3,0,0,0-.78,1.08s-.05,0-.08.08V2.5a.41.41,0,0,0,.13-.08c.18-.17.35-.35.54-.51a6.29,6.29,0,0,1,1-.66,8.62,8.62,0,0,1,.8-.41c.28-.12.57-.21.86-.31.06,0,.14,0,.17-.11l1,.1a2.48,2.48,0,0,1,.27,0c.45.09.9.19,1.34.31a11.1,11.1,0,0,1,1.15.39A12.22,12.22,0,0,1,28.08,2a12.4,12.4,0,0,1,1,.68,7.34,7.34,0,0,1,.69.56q.51.46,1,1c.23.25.43.53.65.8-.06.06,0,.12,0,.16a6.45,6.45,0,0,1,.27,1.07,6.48,6.48,0,0,1,.1.77,8.16,8.16,0,0,1-.08,1.56,9.6,9.6,0,0,1-.25,1.06,7.56,7.56,0,0,1-.65,1.45,6.89,6.89,0,0,1-.66.94c-.2.22-.41.43-.62.65a5.89,5.89,0,0,1-.78.64,6.57,6.57,0,0,1-1.09.63,5.68,5.68,0,0,1-1.19.44l-.82.17-.59.06.46-.58.14-.17s0,0,0,0H21.27a1.79,1.79,0,0,1-.82-.18l-.09-.06c0-.06-.05-.05-.09-.05h0a.23.23,0,0,0-.23-.17,1.84,1.84,0,0,1-.61-.94,2.32,2.32,0,0,1-.06-.38Z" transform="translate(-19.31 -0.41)"/><path class="cls-10" d="M33.62,3.73l.27.73a8.31,8.31,0,0,1,.34,1.37c.06.34.1.69.13,1s0,.55,0,.82,0,.46-.06.69a7.1,7.1,0,0,1-.17,1.11A9,9,0,0,1,33.69,11c-.12.28-.24.56-.38.84a9,9,0,0,1-1,1.5c-.18.22-.38.44-.57.65s-.24.28-.37.41a11.8,11.8,0,0,1-1.22,1,8.47,8.47,0,0,1-1.23.73,9.52,9.52,0,0,1-2.21.78c-.33.08-.68.13-1,.18-.16,0-.33,0-.49,0a5.89,5.89,0,0,1-.84,0c-.23,0-.46,0-.69-.05L23.09,17l.47-.58.78-1,0,0a.7.7,0,0,0,.14,0,4.24,4.24,0,0,0,.71,0c.21,0,.44,0,.65-.07a9.36,9.36,0,0,0,1.27-.3,9,9,0,0,0,1.11-.46,4.42,4.42,0,0,0,.6-.34A7.85,7.85,0,0,0,30.3,13.2a4,4,0,0,0,.34-.37c.2-.24.4-.47.58-.72a7.05,7.05,0,0,0,.86-1.54c.13-.34.25-.68.35-1a6.37,6.37,0,0,0,.24-1.23c0-.24,0-.48,0-.72a4,4,0,0,0,0-.69,3.31,3.31,0,0,1-.06-.54,7.78,7.78,0,0,0-.21-1.07l.63-.83C33.24,4.21,33.43,4,33.62,3.73Z" transform="translate(-19.31 -0.41)"/><path class="cls-11" d="M32.43,5.29a7.78,7.78,0,0,1,.21,1.07,3.31,3.31,0,0,0,.06.54,4,4,0,0,1,0,.69c0,.24,0,.48,0,.72a6.37,6.37,0,0,1-.24,1.23c-.1.35-.22.69-.35,1a7.05,7.05,0,0,1-.86,1.54c-.18.25-.38.48-.58.72a4,4,0,0,1-.34.37,7.85,7.85,0,0,1-1.45,1.11,4.42,4.42,0,0,1-.6.34,9,9,0,0,1-1.11.46,9.36,9.36,0,0,1-1.27.3c-.21,0-.44,0-.65.07a4.24,4.24,0,0,1-.71,0,.7.7,0,0,1-.14,0l.72-.87.59-.06.82-.17a5.68,5.68,0,0,0,1.19-.44,6.57,6.57,0,0,0,1.09-.63,5.89,5.89,0,0,0,.78-.64c.21-.22.42-.43.62-.65a6.89,6.89,0,0,0,.66-.94,7.56,7.56,0,0,0,.65-1.45,9.6,9.6,0,0,0,.25-1.06A8.16,8.16,0,0,0,31.82,7a6.48,6.48,0,0,0-.1-.77,6.45,6.45,0,0,0-.27-1.07s-.06-.1,0-.16l.58.8Z" transform="translate(-19.31 -0.41)"/><path class="cls-12" d="M22.83.42c0,.08-.11.09-.17.11-.29.1-.58.19-.86.31a8.62,8.62,0,0,0-.8.41,6.29,6.29,0,0,0-1,.66c-.19.16-.36.34-.54.51a.41.41,0,0,1-.13.08A1.92,1.92,0,0,1,20.54.55a1.85,1.85,0,0,1,.65-.14h1.64Z" transform="translate(-19.31 -0.41)"/><path class="cls-13" d="M20,13.33a.23.23,0,0,1,.23.17Z" transform="translate(-19.31 -0.41)"/><path class="cls-14" d="M42.73,26.44a.09.09,0,0,1,0,.12Z" transform="translate(-19.31 -0.41)"/><path class="cls-13" d="M20.27,13.5s.09,0,.09.05Z" transform="translate(-19.31 -0.41)"/><path class="cls-15" d="M25.68,13.8c.05,0,0,0,0,0Z" transform="translate(-19.31 -0.41)"/><path class="cls-16" d="M24.64,11.81a4.4,4.4,0,0,1-4.37-4.45A4.38,4.38,0,0,1,29,7.55,4.4,4.4,0,0,1,24.64,11.81Z" transform="translate(-19.31 -0.41)"/></svg>